<mxfile host="app.diagrams.net" agent="Mozilla/5.0 (X11; Ubuntu; Linux x86_64; rv:137.0) Gecko/20100101 Firefox/137.0" version="26.2.14">
  <diagram name="Page-1" id="ZvSHd2wiho8TIRUlcAlh">
    <mxGraphModel dx="935" dy="526" grid="1" gridSize="10" guides="1" tooltips="1" connect="1" arrows="1" fold="1" page="1" pageScale="1" pageWidth="850" pageHeight="1100" math="0" shadow="0">
      <root>
        <mxCell id="0" />
        <mxCell id="1" parent="0" />
        <mxCell id="pIDa929UU-LCY2vGwzRD-1" value="" style="rounded=0;whiteSpace=wrap;html=1;fillColor=#ffe6cc;strokeColor=#d79b00;" vertex="1" parent="1">
          <mxGeometry x="100" y="120" width="260" height="400" as="geometry" />
        </mxCell>
        <mxCell id="pIDa929UU-LCY2vGwzRD-2" value="&lt;b&gt;Main program&lt;/b&gt;" style="text;html=1;align=center;verticalAlign=middle;whiteSpace=wrap;rounded=0;" vertex="1" parent="1">
          <mxGeometry x="180" y="90" width="100" height="30" as="geometry" />
        </mxCell>
        <mxCell id="pIDa929UU-LCY2vGwzRD-4" value="start of program" style="text;html=1;align=center;verticalAlign=middle;whiteSpace=wrap;rounded=0;" vertex="1" parent="1">
          <mxGeometry x="160" y="120" width="100" height="30" as="geometry" />
        </mxCell>
        <mxCell id="pIDa929UU-LCY2vGwzRD-6" value="" style="endArrow=classic;html=1;rounded=0;exitX=0.75;exitY=0.074;exitDx=0;exitDy=0;exitPerimeter=0;dashed=1;entryX=0.75;entryY=0.425;entryDx=0;entryDy=0;entryPerimeter=0;" edge="1" parent="1">
          <mxGeometry width="50" height="50" relative="1" as="geometry">
            <mxPoint x="280" y="144.8" as="sourcePoint" />
            <mxPoint x="280" y="285.2" as="targetPoint" />
          </mxGeometry>
        </mxCell>
        <mxCell id="pIDa929UU-LCY2vGwzRD-7" value="&lt;i&gt;flow of execution&lt;/i&gt;" style="text;html=1;align=center;verticalAlign=middle;whiteSpace=wrap;rounded=0;rotation=90;" vertex="1" parent="1">
          <mxGeometry x="260" y="200" width="110" height="30" as="geometry" />
        </mxCell>
        <mxCell id="pIDa929UU-LCY2vGwzRD-8" value="" style="endArrow=classic;html=1;rounded=0;" edge="1" parent="1">
          <mxGeometry width="50" height="50" relative="1" as="geometry">
            <mxPoint x="20" y="300" as="sourcePoint" />
            <mxPoint x="230" y="300" as="targetPoint" />
          </mxGeometry>
        </mxCell>
        <mxCell id="pIDa929UU-LCY2vGwzRD-9" value="&lt;b&gt;1&lt;/b&gt;" style="ellipse;whiteSpace=wrap;html=1;aspect=fixed;fillColor=#dae8fc;strokeColor=#6c8ebf;" vertex="1" parent="1">
          <mxGeometry x="30" y="250" width="40" height="40" as="geometry" />
        </mxCell>
        <mxCell id="pIDa929UU-LCY2vGwzRD-10" value="&lt;i&gt;Delivery of signal&lt;/i&gt;" style="text;html=1;align=center;verticalAlign=middle;whiteSpace=wrap;rounded=0;" vertex="1" parent="1">
          <mxGeometry x="20" y="210" width="60" height="30" as="geometry" />
        </mxCell>
        <mxCell id="pIDa929UU-LCY2vGwzRD-11" value="instruction m" style="text;html=1;align=center;verticalAlign=middle;whiteSpace=wrap;rounded=0;fontStyle=2" vertex="1" parent="1">
          <mxGeometry x="110" y="270" width="80" height="30" as="geometry" />
        </mxCell>
        <mxCell id="pIDa929UU-LCY2vGwzRD-12" value="instruction m + 1" style="text;html=1;align=center;verticalAlign=middle;whiteSpace=wrap;rounded=0;fontStyle=2" vertex="1" parent="1">
          <mxGeometry x="110" y="300" width="100" height="30" as="geometry" />
        </mxCell>
        <mxCell id="pIDa929UU-LCY2vGwzRD-13" value="" style="rounded=0;whiteSpace=wrap;html=1;fillColor=#d5e8d4;strokeColor=#82b366;" vertex="1" parent="1">
          <mxGeometry x="520" y="200" width="200" height="240" as="geometry" />
        </mxCell>
        <mxCell id="pIDa929UU-LCY2vGwzRD-14" value="&lt;b&gt;Signal handler&lt;/b&gt;" style="text;html=1;align=center;verticalAlign=middle;whiteSpace=wrap;rounded=0;" vertex="1" parent="1">
          <mxGeometry x="570" y="170" width="100" height="30" as="geometry" />
        </mxCell>
        <mxCell id="pIDa929UU-LCY2vGwzRD-15" value="" style="endArrow=classic;html=1;rounded=0;entryX=0.2;entryY=0.083;entryDx=0;entryDy=0;entryPerimeter=0;dashed=1;exitX=0.692;exitY=0.425;exitDx=0;exitDy=0;exitPerimeter=0;" edge="1" parent="1" source="pIDa929UU-LCY2vGwzRD-1" target="pIDa929UU-LCY2vGwzRD-13">
          <mxGeometry width="50" height="50" relative="1" as="geometry">
            <mxPoint x="300" y="290" as="sourcePoint" />
            <mxPoint x="450" y="370" as="targetPoint" />
          </mxGeometry>
        </mxCell>
        <mxCell id="pIDa929UU-LCY2vGwzRD-16" value="" style="endArrow=classic;html=1;rounded=0;entryX=0.2;entryY=0.875;entryDx=0;entryDy=0;entryPerimeter=0;dashed=1;" edge="1" parent="1" target="pIDa929UU-LCY2vGwzRD-13">
          <mxGeometry width="50" height="50" relative="1" as="geometry">
            <mxPoint x="560" y="220" as="sourcePoint" />
            <mxPoint x="450" y="370" as="targetPoint" />
          </mxGeometry>
        </mxCell>
        <mxCell id="pIDa929UU-LCY2vGwzRD-17" value="" style="endArrow=classic;html=1;rounded=0;entryX=0.692;entryY=0.45;entryDx=0;entryDy=0;entryPerimeter=0;dashed=1;" edge="1" parent="1" target="pIDa929UU-LCY2vGwzRD-1">
          <mxGeometry width="50" height="50" relative="1" as="geometry">
            <mxPoint x="560" y="410" as="sourcePoint" />
            <mxPoint x="450" y="370" as="targetPoint" />
          </mxGeometry>
        </mxCell>
        <mxCell id="pIDa929UU-LCY2vGwzRD-18" value="&lt;b&gt;2&lt;/b&gt;" style="ellipse;whiteSpace=wrap;html=1;aspect=fixed;fillColor=#f8cecc;strokeColor=#b85450;" vertex="1" parent="1">
          <mxGeometry x="370" y="220" width="40" height="40" as="geometry" />
        </mxCell>
        <mxCell id="pIDa929UU-LCY2vGwzRD-20" value="&lt;i&gt;Kernel calls signal handler on behalf of process&lt;/i&gt;" style="text;html=1;align=center;verticalAlign=middle;whiteSpace=wrap;rounded=0;" vertex="1" parent="1">
          <mxGeometry x="363" y="160" width="125" height="60" as="geometry" />
        </mxCell>
        <mxCell id="pIDa929UU-LCY2vGwzRD-21" value="&lt;b&gt;3&lt;/b&gt;" style="ellipse;whiteSpace=wrap;html=1;aspect=fixed;fillColor=#f5f5f5;fontColor=#333333;strokeColor=#666666;" vertex="1" parent="1">
          <mxGeometry x="570" y="220" width="40" height="40" as="geometry" />
        </mxCell>
        <mxCell id="pIDa929UU-LCY2vGwzRD-22" value="&lt;i&gt;Code of signal handler is executed&lt;/i&gt;" style="text;html=1;align=center;verticalAlign=middle;whiteSpace=wrap;rounded=0;rotation=90;" vertex="1" parent="1">
          <mxGeometry x="530" y="305" width="110" height="30" as="geometry" />
        </mxCell>
        <mxCell id="pIDa929UU-LCY2vGwzRD-23" value="&lt;b&gt;4&lt;/b&gt;" style="ellipse;whiteSpace=wrap;html=1;aspect=fixed;fillColor=#e1d5e7;strokeColor=#9673a6;" vertex="1" parent="1">
          <mxGeometry x="290" y="320" width="40" height="40" as="geometry" />
        </mxCell>
        <mxCell id="pIDa929UU-LCY2vGwzRD-24" value="" style="endArrow=classic;html=1;rounded=0;dashed=1;entryX=0.769;entryY=0.875;entryDx=0;entryDy=0;entryPerimeter=0;exitX=0.769;exitY=0.45;exitDx=0;exitDy=0;exitPerimeter=0;" edge="1" parent="1">
          <mxGeometry width="50" height="50" relative="1" as="geometry">
            <mxPoint x="280.00000000000006" y="300" as="sourcePoint" />
            <mxPoint x="280.00000000000006" y="470" as="targetPoint" />
          </mxGeometry>
        </mxCell>
        <mxCell id="pIDa929UU-LCY2vGwzRD-25" value="&lt;i&gt;Program resumes at point of interruption&lt;/i&gt;" style="text;html=1;align=center;verticalAlign=middle;whiteSpace=wrap;rounded=0;" vertex="1" parent="1">
          <mxGeometry x="363" y="360" width="95" height="70" as="geometry" />
        </mxCell>
        <mxCell id="pIDa929UU-LCY2vGwzRD-26" value="return" style="text;html=1;align=center;verticalAlign=middle;whiteSpace=wrap;rounded=0;fontStyle=2" vertex="1" parent="1">
          <mxGeometry x="560" y="390" width="60" height="30" as="geometry" />
        </mxCell>
        <mxCell id="pIDa929UU-LCY2vGwzRD-27" value="exit()" style="text;html=1;align=center;verticalAlign=middle;whiteSpace=wrap;rounded=0;fontStyle=2" vertex="1" parent="1">
          <mxGeometry x="110" y="480" width="60" height="30" as="geometry" />
        </mxCell>
      </root>
    </mxGraphModel>
  </diagram>
</mxfile>
